<svg width="16" height="16" viewBox="0 0 16 16" fill="none" xmlns="http://www.w3.org/2000/svg">
<path d="M8 0C12.4183 0 16 3.58172 16 8C16 12.4183 12.4183 16 8 16C3.58172 16 0 12.4183 0 8C0 3.58172 3.58172 0 8 0ZM8.28418 3.9873C8.10682 3.892 7.89317 3.89198 7.71582 3.9873L5.09082 5.40137C4.89658 5.506 4.77546 5.70907 4.77539 5.92969V11.1895C4.77539 11.4166 4.90332 11.6249 5.10645 11.7266L5.70703 12.0264C5.8758 12.1107 6.07439 12.1106 6.24316 12.0264L10.8936 9.70117C11.0965 9.59953 11.2255 9.39204 11.2256 9.16504V5.92969C11.2255 5.70906 11.1034 5.50599 10.9092 5.40137L8.28418 3.9873ZM9.27441 6.7959L9.27539 8.47754L6.72559 9.57031V6.7998L8.02734 6.07031L9.27441 6.7959ZM6.5791 6.53809C6.55585 6.5511 6.53427 6.56686 6.51562 6.58496C6.53411 6.56694 6.55501 6.55106 6.57812 6.53809L7.88086 5.80859L6.5791 6.53809Z" fill="black"/>
</svg>
